<svg width="15" height="15" viewBox="0 0 15 15" fill="none" xmlns="http://www.w3.org/2000/svg">
<path d="M7.57812 4.29688C7.114 4.29688 6.66888 4.48125 6.34069 4.80944C6.0125 5.13763 5.82813 5.58275 5.82812 6.04688V6.48438C5.82813 6.9485 6.0125 7.39362 6.34069 7.72181C6.66888 8.05 7.114 8.23438 7.57812 8.23438C8.04225 8.23438 8.48737 8.05 8.81556 7.72181C9.14375 7.39362 9.32812 6.9485 9.32812 6.48438V6.04688C9.32812 5.58275 9.14375 5.13763 8.81556 4.80944C8.48737 4.48125 8.04225 4.29688 7.57812 4.29688Z" fill="#D2D3E0" style="fill:#D2D3E0;fill:color(display-p3 0.8235 0.8275 0.8784);fill-opacity:1;"/>
<path fill-rule="evenodd" clip-rule="evenodd" d="M7.57812 13.9219C9.20258 13.9219 10.7605 13.2766 11.9092 12.1279C13.0578 10.9792 13.7031 9.42133 13.7031 7.79688C13.7031 6.17242 13.0578 4.61451 11.9092 3.46585C10.7605 2.31719 9.20258 1.67188 7.57812 1.67188C5.95367 1.67188 4.39576 2.31719 3.2471 3.46585C2.09844 4.61451 1.45313 6.17242 1.45312 7.79688C1.45313 9.42133 2.09844 10.9792 3.2471 12.1279C4.39576 13.2766 5.95367 13.9219 7.57812 13.9219ZM5.059 10.316L4.17525 11.1997C3.50219 10.5267 3.04382 9.66921 2.85811 8.73567C2.6724 7.80213 2.76769 6.83449 3.13193 5.95511C3.49617 5.07573 4.113 4.3241 4.90442 3.79529C5.69584 3.26648 6.62629 2.98422 7.57812 2.98422C8.52996 2.98422 9.46041 3.26648 10.2518 3.79529C11.0432 4.3241 11.6601 5.07573 12.0243 5.95511C12.3886 6.83449 12.4838 7.80213 12.2981 8.73567C12.1124 9.66921 11.6541 10.5267 10.981 11.1997L10.0972 10.316C9.85345 10.0721 9.56398 9.87868 9.2454 9.74671C8.92681 9.61474 8.58534 9.54683 8.2405 9.54688H6.91575C6.57091 9.54683 6.22944 9.61474 5.91085 9.74671C5.59227 9.87868 5.3028 10.0721 5.059 10.316Z" fill="#D2D3E0" style="fill:#D2D3E0;fill:color(display-p3 0.8235 0.8275 0.8784);fill-opacity:1;"/>
</svg>
