<svg xmlns="http://www.w3.org/2000/svg" width="14" height="15" viewBox="0 0 14 15" fill="none">
<path d="M13.9408 8.71113L11.9576 8.45245C11.9855 8.23878 12 8.02001 12 7.79688C12 7.57374 11.9855 7.35497 11.9576 7.1413L13.9408 6.88261C13.9799 7.18184 14 7.48701 14 7.79688C14 8.10674 13.9799 8.41191 13.9408 8.71113ZM13.4688 5.11736C13.2328 4.54827 12.9239 4.01706 12.5538 3.53538L10.968 4.75403C11.2328 5.09872 11.4533 5.47807 11.6214 5.88346L13.4688 5.11736ZM11.2615 2.24308L10.0428 3.82892C9.69815 3.56404 9.31881 3.3436 8.91341 3.17549L9.67951 1.32804C10.2486 1.56403 10.7798 1.87293 11.2615 2.24308ZM7.91426 0.856041L7.65557 2.83925C7.4419 2.81137 7.22314 2.79688 7 2.79688C6.77686 2.79688 6.5581 2.81137 6.34443 2.83925L6.08574 0.856041C6.38496 0.817009 6.69013 0.796875 7 0.796875C7.30987 0.796875 7.61504 0.817009 7.91426 0.856041ZM4.32049 1.32804L5.08659 3.17549C4.68119 3.3436 4.30185 3.56404 3.95716 3.82892L2.73851 2.24308C3.22019 1.87293 3.7514 1.56403 4.32049 1.32804ZM1.4462 3.53538L3.03204 4.75403C2.76716 5.09872 2.54673 5.47807 2.37862 5.88346L0.531164 5.11736C0.767153 4.54827 1.07605 4.01706 1.4462 3.53538ZM0.0591659 6.88262C0.0201343 7.18184 0 7.48701 0 7.79688C0 8.10674 0.0201343 8.41191 0.059166 8.71113L2.04237 8.45245C2.01449 8.23878 2 8.02001 2 7.79688C2 7.57374 2.01449 7.35497 2.04237 7.1413L0.0591659 6.88262ZM0.531164 10.4764L2.37862 9.71029C2.54673 10.1157 2.76716 10.495 3.03204 10.8397L1.4462 12.0584C1.07605 11.5767 0.767153 11.0455 0.531164 10.4764ZM2.73851 13.3507L3.95716 11.7649C4.30185 12.0297 4.68119 12.2502 5.08659 12.4183L4.32049 14.2657C3.7514 14.0297 3.22019 13.7208 2.73851 13.3507ZM6.08574 14.7377L6.34443 12.7545C6.5581 12.7824 6.77686 12.7969 7 12.7969C7.22314 12.7969 7.4419 12.7824 7.65557 12.7545L7.91427 14.7377C7.61504 14.7768 7.30987 14.7969 7 14.7969C6.69013 14.7969 6.38496 14.7768 6.08574 14.7377ZM9.67951 14.2657L8.91341 12.4183C9.31881 12.2502 9.69815 12.0297 10.0428 11.7649L11.2615 13.3507C10.7798 13.7208 10.2486 14.0297 9.67951 14.2657ZM12.5538 12.0584L10.968 10.8397C11.2328 10.495 11.4533 10.1157 11.6214 9.71029L13.4688 10.4764C13.2328 11.0455 12.924 11.5767 12.5538 12.0584Z" fill="#BEC2C8" style="fill:#BEC2C8;fill:color(display-p3 0.7451 0.7608 0.7843);fill-opacity:1;"/>
</svg>