<svg width="15" height="15" viewBox="0 0 15 15" fill="none" xmlns="http://www.w3.org/2000/svg">
<g clip-path="url(#clip0_1_508)">
<path fill-rule="evenodd" clip-rule="evenodd" d="M9.34044 4.29688C9.71074 4.29688 10.0423 4.46187 10.2413 4.71688L12.6562 7.79688L10.2413 10.8769C10.0423 11.1319 9.71074 11.2969 9.34044 11.2969L3.26152 11.2919C2.65362 11.2919 2.15625 10.8469 2.15625 10.2968V5.29688C2.15625 4.74688 2.65362 4.30187 3.26152 4.30187L9.34044 4.29688ZM10.1406 8.67188C10.6239 8.67188 11.0156 8.28012 11.0156 7.79688C11.0156 7.31363 10.6239 6.92188 10.1406 6.92188C9.65736 6.92188 9.26562 7.31363 9.26562 7.79688C9.26562 8.28012 9.65736 8.67188 10.1406 8.67188Z" fill="#D2D3E0" style="fill:#D2D3E0;fill:color(display-p3 0.8235 0.8275 0.8784);fill-opacity:1;"/>
</g>
<defs>
<clipPath id="clip0_1_508">
<rect width="14" height="14" fill="white" style="fill:white;fill-opacity:1;" transform="translate(0.40625 0.796875)"/>
</clipPath>
</defs>
</svg>
