<svg width="15" height="15" viewBox="0 0 15 15" fill="none" xmlns="http://www.w3.org/2000/svg">
<g clip-path="url(#clip0_1_495)">
<path opacity="0.9" d="M1 8.67188C1 8.43981 1.09219 8.21725 1.25628 8.05316C1.42038 7.88906 1.64294 7.79688 1.875 7.79688H2.75C2.98206 7.79688 3.20462 7.88906 3.36872 8.05316C3.53281 8.21725 3.625 8.43981 3.625 8.67188V12.1719C3.625 12.4039 3.53281 12.6265 3.36872 12.7906C3.20462 12.9547 2.98206 13.0469 2.75 13.0469H1.875C1.64294 13.0469 1.42038 12.9547 1.25628 12.7906C1.09219 12.6265 1 12.4039 1 12.1719V8.67188ZM5.375 6.04688C5.375 5.81481 5.46719 5.59225 5.63128 5.42816C5.79538 5.26406 6.01794 5.17188 6.25 5.17188H7.125C7.35706 5.17188 7.57962 5.26406 7.74372 5.42816C7.90781 5.59225 8 5.81481 8 6.04688V12.1719C8 12.4039 7.90781 12.6265 7.74372 12.7906C7.57962 12.9547 7.35706 13.0469 7.125 13.0469H6.25C6.01794 13.0469 5.79538 12.9547 5.63128 12.7906C5.46719 12.6265 5.375 12.4039 5.375 12.1719V6.04688ZM9.75 3.42188C9.75 3.18981 9.84219 2.96725 10.0063 2.80316C10.1704 2.63906 10.3929 2.54688 10.625 2.54688H11.5C11.7321 2.54688 11.9546 2.63906 12.1187 2.80316C12.2828 2.96725 12.375 3.18981 12.375 3.42188V12.1719C12.375 12.4039 12.2828 12.6265 12.1187 12.7906C11.9546 12.9547 11.7321 13.0469 11.5 13.0469H10.625C10.3929 13.0469 10.1704 12.9547 10.0063 12.7906C9.84219 12.6265 9.75 12.4039 9.75 12.1719V3.42188Z" fill="#D2D3E0" style="fill:#D2D3E0;fill:color(display-p3 0.8235 0.8275 0.8784);fill-opacity:1;"/>
</g>
<defs>
<clipPath id="clip0_1_495">
<rect width="14" height="14" fill="white" style="fill:white;fill-opacity:1;" transform="translate(0.125 0.796875)"/>
</clipPath>
</defs>
</svg>
